<svg id='lens3' class="svg-icon" style="width: 1em; height: 1em;vertical-align: middle;fill: none;overflow: hidden; " viewBox="0 0 1024 1024" version="1.1" xmlns="http://www.w3.org/2000/svg"><path stroke="black" stroke-width="1" d="M938.666667 324.266667H512c-10.24 0-17.066667-6.826667-17.066667-17.066667s6.826667-17.066667 17.066667-17.066667h426.666667c10.24 0 17.066667 6.826667 17.066666 17.066667s-6.826667 17.066667-17.066666 17.066667zM512 733.866667H85.333333c-10.24 0-17.066667-6.826667-17.066666-17.066667s6.826667-17.066667 17.066666-17.066667H512c10.24 0 17.066667 6.826667 17.066667 17.066667s-6.826667 17.066667-17.066667 17.066667zM477.866667 1006.933333c-3.413333 0-6.826667 0-6.826667-3.413333-6.826667-3.413333-10.24-13.653333-6.826667-23.893333l204.8-358.4c3.413333-6.826667 13.653333-10.24 23.893334-6.826667 6.826667 3.413333 10.24 13.653333 6.826666 23.893333l-204.8 358.4c-6.826667 6.826667-10.24 10.24-17.066666 10.24zM904.533333 785.066667c-6.826667 0-10.24-3.413333-13.653333-6.826667l-204.8-341.333333c-3.413333-6.826667-3.413333-17.066667 6.826667-23.893334 6.826667-3.413333 17.066667-3.413333 23.893333 6.826667l204.8 341.333333c3.413333 6.826667 3.413333 17.066667-6.826667 23.893334h-10.24z" fill="" /><path stroke="black" stroke-width="1" d="M512 733.866667c-122.88 0-221.866667-98.986667-221.866667-221.866667s98.986667-221.866667 221.866667-221.866667 221.866667 98.986667 221.866667 221.866667-98.986667 221.866667-221.866667 221.866667z m0-409.6c-102.4 0-187.733333 85.333333-187.733333 187.733333s85.333333 187.733333 187.733333 187.733333 187.733333-85.333333 187.733333-187.733333S614.4 324.266667 512 324.266667z" fill="" /><path stroke="black" stroke-width="1" d="M512 1006.933333C238.933333 1006.933333 17.066667 785.066667 17.066667 512S238.933333 17.066667 512 17.066667 1006.933333 238.933333 1006.933333 512 785.066667 1006.933333 512 1006.933333z m0-955.733333C259.413333 51.2 51.2 259.413333 51.2 512S259.413333 972.8 512 972.8 972.8 764.586667 972.8 512 764.586667 51.2 512 51.2z" fill="" /><path stroke="black" stroke-width="1" d="M341.333333 409.6c-3.413333 0-6.826667 0-6.826666-3.413333-6.826667-3.413333-10.24-13.653333-6.826667-23.893334l204.8-358.4c3.413333-6.826667 13.653333-10.24 23.893333-6.826666 6.826667 3.413333 10.24 13.653333 6.826667 23.893333l-204.8 358.4c-6.826667 6.826667-10.24 10.24-17.066667 10.24zM324.266667 614.4c-6.826667 0-10.24-3.413333-13.653334-6.826667l-204.8-341.333333c-6.826667-10.24-3.413333-20.48 3.413334-23.893333 10.24-6.826667 20.48-3.413333 23.893333 3.413333l204.8 341.333333c3.413333 6.826667 3.413333 17.066667-6.826667 23.893334 0 3.413333-3.413333 3.413333-6.826666 3.413333z" fill="" /></svg>